<?xml version="1.0" encoding="UTF-8" standalone="no"?>
<!DOCTYPE svg PUBLIC "-//W3C//DTD SVG 1.1//EN" "http://www.w3.org/Graphics/SVG/1.1/DTD/svg11.dtd">
<svg width="100%" height="100%" viewBox="0 0 426 396" version="1.1" xmlns="http://www.w3.org/2000/svg" xmlns:xlink="http://www.w3.org/1999/xlink" xml:space="preserve" xmlns:serif="http://www.serif.com/" style="fill-rule:evenodd;clip-rule:evenodd;stroke-linejoin:round;stroke-miterlimit:2;">
    <g transform="matrix(1,0,0,1,-551.659,-816.215)">
        <g transform="matrix(4.16667,0,0,4.16667,0,0)">
            <g transform="matrix(0,-1,-1,0,184.377,195.892)">
                <path d="M-47.414,-47.413C-73.6,-47.413 -94.827,-26.184 -94.827,0.001C-94.827,26.187 -73.6,47.414 -47.414,47.414C-21.228,47.414 -0,26.187 -0,0.001C-0,-26.184 -21.228,-47.413 -47.414,-47.413" style="fill:rgb(58,109,98);fill-rule:nonzero;"/>
            </g>
        </g>
        <g transform="matrix(4.16667,0,0,4.16667,0,0)">
            <clipPath id="_clip1">
                <path d="M136.963,243.306C136.963,269.491 158.19,290.719 184.376,290.719C210.561,290.719 231.79,269.491 231.79,243.306C231.79,217.12 210.561,195.892 184.376,195.892C158.19,195.892 136.963,217.12 136.963,243.306Z" clip-rule="nonzero"/>
            </clipPath>
            <g clip-path="url(#_clip1)">
                <g transform="matrix(1,0,0,1,208.938,234.995)">
                    <path d="M0,8.565C-21.064,-19.268 -52.165,-16.176 -64.819,7.508C-66.214,10.116 -64.596,11.833 -63.807,11.645C-62.405,11.31 -57.638,9.411 -56.193,8.829C-55.59,8.586 -55.099,7.427 -54.565,6.371C-43.702,-15.13 -29.235,-17.508 -8.492,27.833C-9.496,22.667 -7.413,16.858 -0.662,10.844C0.114,10.152 0.754,9.561 0,8.565" style="fill:rgb(248,248,249);fill-rule:nonzero;"/>
                </g>
                <g transform="matrix(0.249692,-0.968325,-0.968325,-0.249692,139.587,231.48)">
                    <path d="M-3.556,-8.815C-8.26,-6.649 -12.911,-5.427 -13.634,-8.471C-14.043,-5.524 -2.818,-0.098 -3.556,6.295C-3.591,6.597 -3.119,6.672 -2.992,6.397C-0.433,0.888 -2.024,-6.711 -3.556,-8.815" style="fill:rgb(248,248,249);fill-rule:nonzero;"/>
                </g>
                <g transform="matrix(1,0,0,1,234.005,264.207)">
                    <path d="M0,-25.684C0.449,-25.684 0.612,-25.015 0.176,-24.913C-8.81,-22.823 -12.759,-14.068 -12.976,-9.191C-13.048,-7.574 -14.436,-7.288 -16.041,-6.545C-17.831,-5.715 -26.216,-2.13 -29.396,-0.992C-30.953,-0.434 -33.258,0.001 -33.365,-2.403C-33.795,-11.98 -23.739,-25.685 0,-25.684" style="fill:rgb(248,248,249);fill-rule:nonzero;"/>
                </g>
                <g transform="matrix(1,0,0,1,202.938,221.387)">
                    <path d="M0,29.048C-17.807,-5.298 -45.005,-2.556 -58.551,21.114C-59.777,23.257 -58.706,25.286 -57.499,24.954C-56.72,24.74 -56.061,24.333 -54.724,21.712C-43.819,0.337 -25.429,-9.286 -3.282,38.334C-3.302,35.514 -2.221,32.223 0,29.048" style="fill:rgb(233,233,232);fill-rule:nonzero;"/>
                </g>
                <g transform="matrix(1,0,0,1,229.828,253.97)">
                    <path d="M0,-14.459C-6.677,-14.306 -18.664,-11.274 -23.314,-0.812C-23.493,-0.41 -22.992,0.006 -22.663,-0.287C-18.435,-4.054 -11.988,-6.561 -7.751,-6.313C-7.615,-6.305 -7.494,-6.288 -7.437,-6.411C-6.284,-8.89 -3.697,-12.005 0.113,-14.011C0.334,-14.127 0.25,-14.465 0,-14.459" style="fill:rgb(233,233,232);fill-rule:nonzero;"/>
                </g>
                <g transform="matrix(-0.238075,0.971247,0.971247,0.238075,147.243,236.88)">
                    <path d="M1.232,-10.193C2.071,-8.08 3.512,-5.506 4.011,-5.072C2.646,-4.29 1.65,-2.215 1.232,-0.692C3.686,-1.804 7.284,-2.895 8.815,-2.373C8.302,-3.196 2.985,-7.471 1.232,-10.193" style="fill:rgb(233,233,232);fill-rule:nonzero;"/>
                </g>
            </g>
        </g>
    </g>
</svg>
